<?xml version="1.0" standalone="no"?>
<!DOCTYPE svg PUBLIC "-//W3C//DTD SVG 20010904//EN"
 "http://www.w3.org/TR/2001/REC-SVG-20010904/DTD/svg10.dtd">
<svg version="1.0" xmlns="http://www.w3.org/2000/svg"
 width="260.000000pt" height="260.000000pt" viewBox="0 0 260.000000 260.000000"
 preserveAspectRatio="xMidYMid meet">
<metadata>
Created by potrace 1.11, written by Peter Selinger 2001-2013
</metadata>
<g transform="translate(0.000000,260.000000) scale(0.100000,-0.100000)"
fill="#000000" stroke="none">
<path d="M0 1300 l0 -1300 1300 0 1300 0 0 1300 0 1300 -1300 0 -1300 0 0
-1300z m1541 673 c105 -36 211 -105 279 -181 63 -70 132 -209 155 -312 22 -96
22 -271 1 -370 -25 -119 -95 -249 -180 -335 -80 -81 -145 -121 -261 -161 -74
-26 -91 -28 -230 -28 -136 0 -158 3 -230 27 -111 37 -196 90 -270 169 -78 82
-126 167 -158 278 -100 346 30 712 306 863 122 68 211 87 377 83 108 -3 137
-7 211 -33z"/>
<path d="M1163 1825 c-161 -44 -270 -154 -326 -330 -18 -59 -22 -92 -21 -205
0 -116 4 -146 26 -211 71 -215 231 -329 463 -329 200 0 351 89 429 253 45 95
60 170 59 297 -1 277 -127 467 -348 525 -73 19 -212 18 -282 0z"/>
</g>
</svg>
